<svg xmlns="http://www.w3.org/2000/svg" width="20" height="20.453" viewBox="0 0 20 20.453">
    <defs>
        <style>
            .cls-1{fill:#27bfc0}
        </style>
    </defs>
    <g id="calendar" transform="translate(-5.411)">
        <g id="Group_1294" transform="translate(5.411)">
            <path id="Path_1851" d="M119.583 258.706a.464.464 0 0 0-.464-.464H117.5a.464.464 0 0 0-.464.464v1.62a.464.464 0 0 0 .464.464h1.62a.464.464 0 0 0 .464-.464v-1.62z" class="cls-1" transform="translate(-112.358 -247.422)"/>
            <path id="Path_1852" d="M216.218 258.706a.464.464 0 0 0-.464-.464h-1.62a.464.464 0 0 0-.464.464v1.62a.464.464 0 0 0 .464.464h1.62a.464.464 0 0 0 .464-.464z" class="cls-1" transform="translate(-204.944 -247.422)"/>
            <path id="Path_1853" d="M312.846 258.706a.464.464 0 0 0-.464-.464h-1.62a.464.464 0 0 0-.464.464v1.62a.464.464 0 0 0 .464.464h1.62a.464.464 0 0 0 .464-.464z" class="cls-1" transform="translate(-297.523 -247.422)"/>
            <path id="Path_1854" d="M119.583 355.339a.464.464 0 0 0-.464-.464H117.5a.464.464 0 0 0-.464.464v1.62a.464.464 0 0 0 .464.464h1.62a.464.464 0 0 0 .464-.464v-1.62z" class="cls-1" transform="translate(-112.358 -340.006)"/>
            <path id="Path_1855" d="M216.218 355.339a.464.464 0 0 0-.464-.464h-1.62a.464.464 0 0 0-.464.464v1.62a.464.464 0 0 0 .464.464h1.62a.464.464 0 0 0 .464-.464z" class="cls-1" transform="translate(-204.944 -340.006)"/>
            <path id="Path_1856" d="M312.846 355.339a.464.464 0 0 0-.464-.464h-1.62a.464.464 0 0 0-.464.464v1.62a.464.464 0 0 0 .464.464h1.62a.464.464 0 0 0 .464-.464v-1.62z" class="cls-1" transform="translate(-297.523 -340.006)"/>
            <path id="Path_1857" d="M23.631 54.151v2.474a2.021 2.021 0 0 1-2.025 2.019h-1.278a2.031 2.031 0 0 1-2.037-2.019v-2.483h-5.759v2.483a2.031 2.031 0 0 1-2.037 2.019H9.216a2.021 2.021 0 0 1-2.025-2.019v-2.474a1.842 1.842 0 0 0-1.78 1.832v14.5a1.843 1.843 0 0 0 1.833 1.844h16.334a1.845 1.845 0 0 0 1.833-1.844v-14.5a1.842 1.842 0 0 0-1.78-1.832zm-.594 15.429a.793.793 0 0 1-.793.793H8.542a.793.793 0 0 1-.793-.793v-7.49a.793.793 0 0 1 .793-.793h13.7a.793.793 0 0 1 .793.793v7.49z" class="cls-1" transform="translate(-5.411 -51.873)"/>
            <path id="Path_1858" d="M80.245 5.445h1.264a.694.694 0 0 0 .695-.694V.694A.694.694 0 0 0 81.508 0h-1.263a.694.694 0 0 0-.695.694v4.057a.694.694 0 0 0 .695.694z" class="cls-1" transform="translate(-76.444)"/>
            <path id="Path_1859" d="M345.153 5.445h1.264a.694.694 0 0 0 .694-.694V.694a.694.694 0 0 0-.695-.694h-1.264a.694.694 0 0 0-.695.694v4.057a.694.694 0 0 0 .696.694z" class="cls-1" transform="translate(-330.252)"/>
        </g>
    </g>
</svg>
